<?xml version="1.0" standalone="no"?>
<!DOCTYPE svg PUBLIC "-//W3C//DTD SVG 20010904//EN"
 "http://www.w3.org/TR/2001/REC-SVG-20010904/DTD/svg10.dtd">
<svg version="1.0" xmlns="http://www.w3.org/2000/svg"
 width="512.000000pt" height="512.000000pt" viewBox="0 0 512.000000 512.000000"
 preserveAspectRatio="xMidYMid meet">
<metadata>
Created by potrace 1.14, written by Peter Selinger 2001-2017
</metadata>
<g transform="translate(0.000000,512.000000) scale(0.100000,-0.100000)"
fill="#000000" stroke="none">
<path d="M1785 4050 c-31 -13 -71 -61 -85 -102 -19 -62 -16 -160 6 -199 39
-66 126 -95 198 -65 65 27 97 95 98 212 1 54 -2 68 -26 98 -15 20 -40 43 -56
51 -31 16 -102 19 -135 5z"/>
<path d="M2180 4028 c-72 -37 -104 -89 -125 -202 -20 -116 -14 -162 29 -219
94 -125 291 -111 362 25 19 36 44 158 44 211 -1 77 -52 157 -124 191 -50 23
-133 21 -186 -6z"/>
<path d="M1454 4019 c-18 -5 -46 -25 -63 -44 -30 -34 -31 -40 -31 -122 0 -68
4 -92 20 -118 41 -66 133 -82 199 -36 84 60 79 253 -8 303 -36 22 -81 28 -117
17z"/>
<path d="M1130 3947 c-69 -24 -99 -116 -70 -216 31 -109 171 -133 230 -39 40
62 14 206 -43 242 -34 21 -78 26 -117 13z"/>
<path d="M844 3782 c-48 -38 -57 -107 -24 -179 51 -114 210 -83 210 40 0 51
-30 119 -61 141 -31 21 -98 20 -125 -2z"/>
<path d="M1293 3610 c-185 -23 -321 -105 -374 -226 -36 -81 -40 -185 -37 -940
4 -810 0 -763 74 -905 64 -122 192 -229 323 -270 78 -24 218 -29 301 -9 145
34 296 149 363 278 57 109 70 168 65 296 -5 110 -5 113 -61 232 -67 146 -77
181 -77 259 1 137 39 218 166 356 102 111 160 197 195 294 19 51 22 82 23 205
1 139 0 147 -27 202 -53 109 -136 169 -285 210 -67 18 -111 21 -327 24 -137 1
-282 -2 -322 -6z"/>
<path d="M3235 3443 c-36 -9 -87 -55 -102 -92 -35 -83 3 -231 70 -271 73 -45
178 -16 218 60 31 58 21 185 -18 239 -39 51 -110 79 -168 64z"/>
<path d="M2810 3431 c-77 -16 -137 -67 -160 -137 -16 -46 -8 -160 15 -234 60
-193 314 -215 400 -34 29 61 16 214 -25 294 -42 83 -139 129 -230 111z"/>
<path d="M3570 3392 c-57 -28 -80 -73 -80 -154 0 -44 6 -83 16 -104 45 -94
167 -108 233 -26 29 35 31 41 31 124 0 79 -2 89 -27 119 -48 57 -112 72 -173
41z"/>
<path d="M3894 3330 c-43 -17 -69 -69 -72 -146 -6 -113 34 -164 129 -164 131
0 180 243 60 305 -33 16 -84 19 -117 5z"/>
<path d="M4162 3170 c-41 -25 -62 -73 -62 -140 0 -44 5 -56 29 -81 24 -24 38
-29 76 -29 38 0 52 5 75 28 28 28 50 85 50 129 0 83 -97 137 -168 93z"/>
<path d="M3380 3000 c-209 -12 -342 -60 -425 -153 -78 -86 -106 -206 -85 -363
21 -158 76 -263 218 -416 103 -110 145 -183 164 -288 17 -91 0 -173 -68 -322
-72 -155 -86 -242 -62 -366 24 -120 69 -203 158 -293 181 -183 434 -222 664
-101 136 71 255 227 285 375 8 37 11 294 9 847 l-3 795 -32 61 c-78 149 -208
207 -503 224 -91 5 -172 9 -180 8 -8 0 -71 -4 -140 -8z"/>
</g>
</svg>
